# xmcd CD database file
#
# Track frame offsets:
#	150
#	12534
#	23964
#	36283
#	48156
#	65830
#	77906
#	89216
#	99303
#	112543
#	122754
#	133886
#	147402
#	157725
#	169295
#	180087
#
# Disc length: 2569 seconds
#
# Revision: 0
# Processed by: cddbd v1.5.2PL0 Copyright (c) Steve Scherf et al.
# Submitted via: CDex 1.51
#
DISCID=d40a0710
DTITLE=Various Artist - Just Country (Roads)
DYEAR=2006
DGENRE=Country
TTITLE0=Glen Campbell - By The Time I Get To Phoenix
TTITLE1=Connie Francis - My Happiness
TTITLE2=Frankie Laine - High Noon
TTITLE3=Bill Jo Spears - What Have They Done To My Song
TTITLE4=Glen Campbell - Southren Nights
TTITLE5=Waylon Jennings - Don't Think Twice It's Alright
TTITLE6=Ricky Nelson - Poor Little Fool
TTITLE7=Dolly Parton - Release Me
TTITLE8=Tammy Wynette - Stand By Your Man
TTITLE9=Jo Ann Steel - One Two Many Times
TTITLE10=Don Williams - Storybook Children
TTITLE11=Kenny Rogers - Ruby Don't Take Your Love To Town
TTITLE12=Ferlin Husky - Wings Of A Dove
TTITLE13=Patsy Cline - Walkin After Midnight
TTITLE14=Guy Mitchell  - Singnig The Blues
TTITLE15=Slim Whitman - Tennessee Waltz
EXTD=YEAR: 2006
EXTT0=
EXTT1=
EXTT2=
EXTT3=
EXTT4=
EXTT5=
EXTT6=
EXTT7=
EXTT8=
EXTT9=
EXTT10=
EXTT11=
EXTT12=
EXTT13=
EXTT14=
EXTT15=
PLAYORDER=
